<?xml version="1.0" encoding="UTF-8"?>
<svg id="Layer_1" xmlns="http://www.w3.org/2000/svg" version="1.1" viewBox="200 150 450 300">
  <!-- Generator: Adobe Illustrator 30.0.0, SVG Export Plug-In . SVG Version: 2.1.1 Build 123)  -->
  <defs>
    <style>
      .st0 {
        fill: #ae2428;
        stroke: #fff;
        stroke-miterlimit: 10;
        stroke-width: 5px;
      }

      .st1 {
        fill: #fceb94;
      }

      .st2 {
        fill: #fff;
      }
    </style>
  </defs>
  <ellipse class="st0" cx="421.12" cy="298.03" rx="189.75" ry="106.91"/>
  <g>
    <path class="st1" d="M302.05,279.43c0-8.71-.49-15.22-1.46-19.29-.97-4.1-3.07-6.88-6.28-7.99-3.21-1.05-7.26.4-12.13,4.21-1.24.99-2.42,1.97-3.54,3.09-1.12,1.11-2.19,2.24-3.2,3.38-2.02,2.23-3.81,4.75-5.37,7.08-3.12,4.79-5.01,8.3-5.67,10.9-.66,2.61-.99,6.08-.99,10.59v14.09c0,3.26.16,5.78.47,7.65.32,1.87,1.11,4.04,2.37,6.72,1.27,2.64,3.12,5.74,5.56,9.13.61.86,1.23,1.7,1.86,2.51.63.78,1.28,1.53,1.93,2.26,1.31,1.45,2.66,2.81,4.06,3.95,1.17.92,2.27,1.66,3.29,2.12,1.02.45,1.96.66,2.82.63,1.73-.09,3.16-1.23,4.29-3.37l1.54,7.55,2.61,1.72,2.61,1.64c1.74,1.11,3.49,2.13,5.23,3.15v-57.02c-6.49.28-12.99.59-19.48.94v12.24l3.36.56v10.14c0,3.98-.22,6.57-.65,7.71-.43,1.15-1.26,1.4-2.47.78-1.11-.58-1.84-1.55-2.21-2.83-.37-1.29-.55-3.64-.55-7.08v-36.83c0-3.91.18-6.43.55-7.58.37-1.14,1.07-2.01,2.09-2.55,1.19-.61,1.94-.4,2.25.67.32,1.06.47,4.03.47,8.88v7.69c5.55-1.05,11.09-1.99,16.64-2.84v-4.59Z"/>
    <path class="st1" d="M329.67,231.25v98.42c0,6.66-.15,10.84-.45,12.54-.3,1.7-.98,2.39-2.04,2.08-.92-.27-1.54-1.25-1.84-2.92-.3-1.67-.45-5.32-.45-10.98v-97.11c-5.55,2.42-11.09,5.17-16.64,8.14v67c0,12.77.13,21.18.4,25.28.26,4.1,1.12,8.21,2.57,12.52.72,2.16,1.63,4.26,2.73,6.31,1.09,2.04,2.37,3.99,3.83,5.91.73.96,1.49,1.86,2.28,2.71.79.82,1.6,1.59,2.45,2.29,1.69,1.4,3.48,2.61,5.39,3.41,1.73.74,3.34,1.18,4.84,1.23,1.5.02,2.88-.3,4.15-.99,2.54-1.33,4.59-4.21,6.15-8.38,1.55-4.19,2.49-8.54,2.81-12.94.32-4.4.47-12.14.47-23.19v-97.47c-2.77.94-5.55,1.87-8.32,2.88-2.77,1.07-5.55,2.06-8.32,3.26Z"/>
    <path class="st1" d="M352.75,223.12v149.83c8.92,2.6,17.84,4.6,26.75,6.12v-32.43c-3.37-.3-6.74-.76-10.12-1.15v-126.56c-2.77.58-5.55,1.29-8.32,1.93-2.77.72-5.55,1.5-8.32,2.26Z"/>
    <path class="st2" d="M421.85,213.56l-7.41,65.65v-65.56c-2.77,0-5.55.19-8.32.34l-4.16.24-4.16.38v166.81l4.16.38,4.16.24c2.77.15,5.55.34,8.32.34v-72.33l6.74,72.44,8.6-.16,8.6-.46-10.45-92.04,9.54-75.73c-2.6-.13-5.2-.31-7.81-.41l-7.81-.14Z"/>
    <path class="st2" d="M441.23,381.67c2.77-.27,5.55-.47,8.32-.81,2.77-.37,5.55-.68,8.32-1.1v-73.71c2.29-.04,3.71.98,4.25,3.03.54,2.06.81,7.42.81,16.07v53.77c2.58-.38,5.15-.96,7.73-1.46,2.58-.48,5.15-1.12,7.73-1.72v-41c0-12.54-.14-20.2-.41-22.98-.28-2.78-.98-5.81-2.11-9.15-1.13-3.33-3.35-6.03-6.64-8.09,3.64-.83,6.07-3.32,7.31-7.46,1.24-4.15,1.86-12.23,1.86-24.33,0-13.24-.88-23.02-2.63-29.46-1.75-6.47-4.02-10.72-6.8-12.77-1.39-1.02-3.41-2.04-6.07-2.82-2.66-.81-5.95-1.6-9.87-2.05-1.96-.23-3.93-.55-5.89-.71l-5.89-.54v167.28ZM461.84,247.1c.72,1.68,1.09,5.08,1.09,10.21v8.9c0,7.13-.38,11.32-1.13,12.6-.75,1.27-2.06,1.88-3.93,1.82v-36.35c1.92.21,3.25,1.16,3.97,2.83Z"/>
    <path class="st2" d="M484.82,221.96v152.14l4.16-1.14,4.16-1.28c2.77-.81,5.55-1.81,8.32-2.75v-141.8c-2.77-.94-5.55-1.94-8.32-2.75l-4.16-1.28-4.16-1.14Z"/>
    <path class="st2" d="M543.39,273.81c0-8.12-.49-14.06-1.48-17.98-.99-3.89-3-7.92-6.05-11.96-1.52-2.04-3.2-3.91-5.04-5.5-.92-.81-1.88-1.56-2.88-2.26-1-.68-2.04-1.28-3.12-1.82-.99-.5-1.94-.9-2.86-1.2-.92-.27-1.79-.44-2.64-.51-1.69-.13-3.23.1-4.62.87-2.79,1.5-4.81,4.44-6.07,8.91-1.25,4.44-1.88,12.02-1.88,22.59,0,7.33.44,13.42,1.32,18.17.88,4.75,2,8.44,3.34,11.07,1.34,2.62,4.08,6.85,8.22,12.06,4.14,5.15,6.73,8.38,7.79,10.4,1.03,2.02,1.54,6.46,1.54,13.41,0,3.17-.27,5.63-.81,7.44-.54,1.81-1.36,2.9-2.47,3.28-1.11.38-1.88-.01-2.31-1.2-.43-1.18-.65-4.11-.65-8.78v-15.13c-5.15.68-10.3,1.31-15.45,1.86v9c0,10.31.49,18.17,1.46,23.45.97,5.31,3.04,9.09,6.18,11.3,3.15,2.16,6.95,2.04,11.4-.26,4.06-2.08,7.61-5.43,10.67-9.6,3.06-4.17,5.12-8.25,6.18-12.19,1.07-4,1.6-9.48,1.6-16.63,0-9.83-.96-16.77-2.88-21.31-1.92-4.51-6.59-10.48-13.99-19.71-2.58-3.2-4.15-6.01-4.7-8.2-.58-2.2-.87-5.41-.87-9.57,0-3.24.26-5.58.77-7,.51-1.42,1.27-1.95,2.27-1.6.92.31,1.58,1.11,1.98,2.37.4,1.27.59,3.96.59,8.08v8.84c5.15,1.03,10.3,2.15,15.45,3.37v-4.04Z"/>
    <path class="st2" d="M549.99,344.98c4.81-3.16,9.62-6.55,14.42-10.38l3.61-2.9c1.2-.97,2.4-2.07,3.61-3.1,1.2-1.01,2.4-2.15,3.61-3.28.6-.56,1.2-1.12,1.8-1.73.6-.6,1.2-1.19,1.8-1.84v-9.49c-4.07,2.54-8.14,4.66-12.21,6.64v-15.3c3.46-.44,6.93-.94,10.39-1.47v-9.73c-3.46-.74-6.93-1.42-10.39-2.03v-13.19c3.7,1.78,7.4,3.75,11.1,5.96v-9.95c-1.16-1.18-2.31-2.26-3.47-3.34-1.16-1.11-2.31-2.08-3.47-3.1-2.31-2.08-4.62-3.84-6.94-5.72-4.62-3.65-9.25-6.9-13.87-9.94v93.9Z"/>
  </g>
</svg>
